<svg width="178" height="172" viewBox="0 0 178 172" xmlns="http://www.w3.org/2000/svg">
<path d="M114.25 124.187C116.8 110.8 120.306 107.294 133.694 104.744C135.288 104.425 136.244 103.15 136.244 101.556C136.244 99.9625 135.288 98.6875 133.694 98.3687C120.306 95.8187 116.8 92.3125 114.25 78.925C113.931 77.3312 112.656 76.375 111.063 76.375C109.469 76.375 108.194 77.3312 107.875 78.925C105.325 92.3125 101.819 95.8187 88.4313 98.3687C87.1563 98.6875 85.8813 99.9625 85.8813 101.556C85.8813 103.15 86.8376 104.425 88.4313 104.744C101.819 107.294 105.325 110.8 107.875 124.187C108.194 125.781 109.469 126.737 111.063 126.737C112.656 126.737 113.931 125.462 114.25 124.187Z" fill="#FFF"/>
<path d="M146.125 146.5C137.2 144.587 135.288 142.675 133.375 133.75C133.056 132.156 131.781 131.2 130.188 131.2C128.594 131.2 127.319 132.156 127 133.75C125.088 142.675 123.175 144.587 114.25 146.5C112.656 146.819 111.7 148.094 111.7 149.687C111.7 151.281 112.656 152.556 114.25 152.875C123.175 154.787 125.088 156.7 127 165.625C127.319 167.219 128.594 168.175 130.188 168.175C131.781 168.175 133.056 167.219 133.375 165.625C135.288 156.7 137.2 154.787 146.125 152.875C147.719 152.556 148.675 151.281 148.675 149.687C148.675 148.094 147.4 146.819 146.125 146.5Z" fill="#FFF"/>
<path d="M169.075 114.625C162.063 113.35 160.469 111.756 159.194 104.744C158.875 103.15 157.6 102.194 156.006 102.194C154.413 102.194 153.138 103.15 152.819 104.744C151.544 111.756 149.95 113.35 142.938 114.625C141.344 114.944 140.388 116.219 140.388 117.812C140.388 119.406 141.344 120.681 142.938 121C149.95 122.275 151.544 123.869 152.819 130.881C153.138 132.475 154.413 133.431 156.006 133.431C157.6 133.431 158.875 132.475 159.194 130.881C160.469 123.869 162.063 122.275 169.075 121C170.669 120.681 171.625 119.406 171.625 117.812C171.625 116.219 170.669 114.944 169.075 114.625Z" fill="#FFF"/>
<path d="M94.1687 141.081C93.2125 140.125 91.9375 139.806 90.6625 140.444C90.3437 140.444 90.025 140.762 89.7063 141.081C89.3875 141.4 89.0687 141.719 89.0687 142.037C88.75 142.356 88.75 142.994 88.75 143.312C88.75 143.631 88.75 144.269 89.0687 144.587C89.3875 144.906 89.3875 145.225 89.7063 145.544C90.025 145.862 90.3437 146.181 90.6625 146.181C90.9812 146.5 91.6187 146.5 91.9375 146.5C92.2563 146.5 92.8938 146.5 93.2125 146.181C93.5313 145.862 93.85 145.862 94.1687 145.544C94.4875 145.225 94.8063 144.906 94.8063 144.587C95.125 144.269 95.125 143.631 95.125 143.312C95.125 142.994 95.125 142.356 94.8063 142.037C94.8063 141.719 94.4875 141.4 94.1687 141.081Z" fill="#FFF"/>
<path d="M165.25 92.3125C166.206 92.3125 166.844 91.9938 167.481 91.3563C168.119 90.7188 168.438 90.0813 168.438 89.125C168.438 88.1688 168.119 87.5313 167.481 86.8938C167.163 86.575 166.844 86.2563 166.525 86.2563C165.887 85.9375 164.931 85.9375 163.975 86.2563C163.656 86.2563 163.337 86.575 163.019 86.8938C162.381 87.5313 162.062 88.1688 162.062 89.125C162.062 90.0813 162.381 90.7188 163.019 91.3563C163.656 91.9938 164.294 92.3125 165.25 92.3125Z" fill="#FFF"/>
<path d="M28.3687 47.8125C30.9187 34.425 34.425 30.9187 47.8125 28.3687C49.4062 28.05 50.3625 26.775 50.3625 25.1812C50.3625 23.5875 49.4062 22.3125 47.8125 21.9937C34.425 19.4437 30.9187 15.9375 28.3687 2.55C28.05 0.95625 26.775 0 25.1812 0C23.5875 0 22.3125 0.95625 21.9937 2.55C19.4437 15.9375 15.9375 19.4437 2.55 21.9937C1.275 22.3125 0 23.5875 0 25.1812C0 26.775 0.95625 28.05 2.55 28.3687C15.9375 30.9187 19.4437 34.425 21.9937 47.8125C22.3125 49.4062 23.5875 50.3625 25.1812 50.3625C26.775 50.3625 28.05 49.0875 28.3687 47.8125Z" fill="#FFF"/>
<path d="M60.2439 70.1249C51.3189 68.2124 49.4064 66.2999 47.4938 57.3749C47.1751 55.7812 45.9001 54.825 44.3063 54.825C42.7126 54.825 41.4376 55.7812 41.1188 57.3749C39.2063 66.2999 37.2938 68.2124 28.3688 70.1249C26.7751 70.4437 25.8188 71.7187 25.8188 73.3124C25.8188 74.9062 26.7751 76.1812 28.3688 76.4999C37.2938 78.4124 39.2063 80.3249 41.1188 89.2499C41.4376 90.8437 42.7126 91.7999 44.3063 91.7999C45.9001 91.7999 47.1751 90.8437 47.4938 89.2499C49.4064 80.3249 51.3189 78.4124 60.2439 76.4999C61.8376 76.1812 62.7938 74.9062 62.7938 73.3124C62.7938 71.7187 61.5189 70.4437 60.2439 70.1249Z" fill="#FFF"/>
<path d="M83.1938 38.2501C76.1813 36.9751 74.5876 35.3813 73.3126 28.3688C72.9938 26.7751 71.7188 25.8188 70.1251 25.8188C68.5313 25.8188 67.2563 26.7751 66.9376 28.3688C65.6626 35.3813 64.0688 36.9751 57.0563 38.2501C55.4626 38.5688 54.5063 39.8438 54.5063 41.4376C54.5063 43.0313 55.4626 44.3063 57.0563 44.6251C64.0688 45.9001 65.6626 47.4938 66.9376 54.5063C67.2563 56.1001 68.5313 57.0563 70.1251 57.0563C71.7188 57.0563 72.9938 56.1001 73.3126 54.5063C74.5876 47.4938 76.1813 45.9001 83.1938 44.6251C84.7876 44.3063 85.7438 43.0313 85.7438 41.4376C85.7438 39.8438 84.7876 38.5688 83.1938 38.2501Z" fill="#FFF"/>
<path d="M8.28752 64.7062C7.33127 63.75 6.05627 63.4312 4.78127 64.0687C4.46252 64.0687 4.14378 64.3875 3.82503 64.7062C3.50628 65.025 3.18752 65.3437 3.18752 65.6625C2.86877 65.9812 2.86877 66.6187 2.86877 66.9375C2.86877 67.2562 2.86877 67.8937 3.18752 68.2125C3.50627 68.5312 3.50628 68.85 3.82503 69.1687C4.14378 69.4875 4.46252 69.8062 4.78127 69.8062C5.10002 70.125 5.73752 70.125 6.05627 70.125C6.37502 70.125 7.01252 70.125 7.33127 69.8062C7.65002 69.4875 7.96877 69.4875 8.28752 69.1687C8.60627 68.85 8.92502 68.5312 8.92502 68.2125C9.24377 67.8937 9.24377 67.2562 9.24377 66.9375C9.24377 66.6187 9.24377 65.9812 8.92502 65.6625C8.92502 65.3437 8.60627 65.025 8.28752 64.7062Z" fill="#FFF"/>
<path d="M79.3687 15.9374C80.3249 15.9374 80.9624 15.6187 81.5999 14.9812C82.2374 14.3437 82.5562 13.7062 82.5562 12.7499C82.5562 11.7937 82.2374 11.1562 81.5999 10.5187C81.2812 10.1999 80.9624 9.88115 80.6437 9.88115C80.0062 9.5624 79.0499 9.5624 78.0937 9.88115C77.7749 9.88115 77.4561 10.1999 77.1374 10.5187C76.4999 11.1562 76.1812 11.7937 76.1812 12.7499C76.1812 13.7062 76.4999 14.3437 77.1374 14.9812C77.7749 15.6187 78.4124 15.9374 79.3687 15.9374Z" fill="#FFF"/>
</svg>
