<svg xmlns="http://www.w3.org/2000/svg" xmlns:xlink="http://www.w3.org/1999/xlink" xml:space="preserve" version="1.1" style="shape-rendering:geometricPrecision;text-rendering:geometricPrecision;image-rendering:optimizeQuality;" viewBox="0 0 333 416.25" x="0px" y="0px" clip-rule="evenodd"><defs><style type="text/css">
   
    
   
  </style></defs><g><path  d="M167 35c-3,0 -3,84 0,84 3,0 3,-84 0,-84zm-46 -24c34,129 42,127 8,-2 -3,-2 -7,-1 -8,2zm84 -2c-35,129 -27,131 8,2 -2,-3 -6,-4 -8,-2zm74 40c-95,94 -89,100 5,6 0,-3 -3,-6 -5,-6zm43 72c-128,34 -126,42 2,8 2,-3 1,-7 -2,-8zm2 84c-128,-35 -130,-27 -2,8 3,-2 4,-6 2,-8zm-40 74c-94,-95 -100,-89 -5,5 2,0 5,-3 5,-5zm-71 43c-35,-128 -43,-126 -8,2 2,2 6,1 8,-2zm-84 2c34,-128 26,-130 -8,-2 1,3 5,4 8,2zm-74 -40c94,-94 88,-100 -6,-5 0,2 3,5 6,5zm-44 -71c129,-35 127,-43 -2,-8 -2,2 -1,6 2,8zm-2 -84c129,34 131,26 2,-8 -3,1 -4,5 -2,8zm40 -74c94,94 100,88 6,-6 -3,0 -6,3 -6,6zm141 -18c-3,0 -18,83 -15,83 3,1 17,-82 15,-83zm22 6c-3,-1 -32,78 -29,79 3,1 31,-78 29,-79zm20 10c-2,-2 -44,71 -42,73 3,1 45,-72 42,-73zm19 13c-2,-2 -56,63 -54,64 2,2 56,-62 54,-64zm16 16c-1,-2 -66,52 -64,54 2,3 66,-52 64,-54zm14 19c-2,-3 -75,39 -73,42 1,3 74,-40 73,-42zm9 21c-1,-3 -80,26 -79,28 1,3 80,-26 79,-28zm6 22c0,-3 -83,12 -83,14 1,3 84,-11 83,-14zm2 23c0,-3 -84,-3 -84,0 0,3 84,3 84,0zm-2 23c1,-3 -82,-18 -83,-15 0,3 83,17 83,15zm-6 22c1,-3 -78,-32 -79,-29 -1,3 78,31 79,29zm-9 20c1,-2 -72,-44 -73,-42 -2,3 71,45 73,42zm-14 19c2,-2 -62,-56 -64,-54 -2,2 63,56 64,54zm-16 16c2,-1 -52,-66 -54,-64 -2,2 52,66 54,64zm-19 14c3,-2 -39,-75 -42,-73 -2,1 40,74 42,73zm-20 9c2,-1 -26,-80 -29,-79 -3,1 26,80 29,79zm-23 6c3,0 -11,-83 -14,-83 -3,1 12,84 14,83zm-22 2c3,0 3,-84 0,-84 -3,0 -3,84 0,84zm-23 -2c3,1 17,-82 14,-83 -2,0 -17,83 -14,83zm-22 -6c2,1 31,-78 28,-79 -2,-1 -31,78 -28,79zm-21 -9c2,1 45,-72 42,-73 -3,-2 -45,71 -42,73zm-19 -14c2,2 57,-62 54,-64 -2,-2 -56,63 -54,64zm-16 -16c2,2 66,-52 64,-54 -1,-2 -66,52 -64,54zm-13 -19c1,3 74,-39 73,-42 -2,-2 -75,40 -73,42zm-10 -20c1,2 80,-26 79,-29 -1,-3 -80,26 -79,29zm-6 -23c1,3 84,-11 83,-14 0,-3 -83,12 -83,14zm-2 -22c0,3 84,3 84,0 0,-3 -84,-3 -84,0zm2 -23c0,3 83,17 83,14 1,-2 -82,-17 -83,-14zm6 -22c-1,2 78,31 79,28 1,-2 -78,-31 -79,-28zm10 -21c-2,2 71,45 73,42 1,-3 -72,-45 -73,-42zm13 -19c-2,2 63,57 64,54 2,-2 -62,-56 -64,-54zm16 -16c-2,2 52,66 54,64 3,-1 -52,-66 -54,-64zm19 -13c-3,1 39,74 42,73 3,-2 -40,-75 -42,-73zm21 -10c-3,1 26,80 28,79 3,-1 -26,-80 -28,-79zm22 -6c-3,1 12,84 14,83 3,0 -11,-83 -14,-83z" fill="#8C644F"/></g></svg>