<svg role="img" aria-label="Logo for TouchBistro" version="1.1" id="Layer_1" xmlns="http://www.w3.org/2000/svg" xmlns:xlink="http://www.w3.org/1999/xlink" x="0px" y="0px" viewBox="0 0 280 280" style="enable-background:new 0 0 1224 280;" xml:space="preserve">
<g>
	
	
		<ellipse transform="matrix(0.0385 -0.9993 0.9993 0.0385 2.2638 276.1006)" style="fill:#00a3ad;" cx="144.6" cy="136.87" rx="98.5" ry="98.5"></ellipse>
	<path style="fill:#ffffff;" d="M171.01,133.84c0-1.09-0.01-3.18-0.01-3.51c-0.12-12.85,0.9-18.89,1.45-22.69
		c8.98-1.04,15.97-8.68,15.97-17.93c0-9.95-8.1-18.05-18.05-18.05c-1.46,0-2.89,0.2-4.28,0.54c-3.78-8.29-12.17-13.84-21.48-13.84
		c-9.53,0-17.75,5.68-21.48,13.83c-1.39-0.34-2.82-0.53-4.29-0.53c-9.95,0-18.05,8.1-18.05,18.05c0,9.26,7.01,16.92,16.01,17.94
		c0.51,3.36,1.47,8.13,1.44,19.26c-2.35,2.46-4.39,5.33-6.04,8.58c-6.14,12.08-6.32,27.78-0.53,44.22
		c11.35,32.22,37.11,35.7,47.65,35.7c3.75,0,7.83-1.39,9.09-3.11c0.5-0.68,0.69-1.48,0.55-2.37c-0.1-0.33-0.48-0.52-0.86-0.43
		c-2.9,0.74-13.32,2.71-25.43-2.95c-7.95-3.72-18.71-11.77-24.79-29.02c-5.19-14.72-5.12-28.59,0.19-39.05
		c3.43-6.75,8.83-11.53,15.19-13.44c8.57-2.57,16.39,0.41,21.44,3.37c10.25,5.99,18.56,17.41,21.17,29.08
		c4.61,20.6,0.07,34.94-12.14,38.36c-13.01,3.64-27.17-8.93-32.23-22.97c-3.26-9.06-3.2-19.84,0.16-26.83
		c1.08-2.25,3.04-5.16,6.21-6.24c10.05-3.4,20.42,8.64,23.74,18.28c1.96,5.68,2.85,13.61,0.41,18.51c-1,2.02-2.46,3.32-4.46,3.97
		c-1.79,0.59-3.56,0.37-5.43-0.67c-4.78-2.67-8.2-9.51-8.9-12.4c-1.58-6.61-1.23-11.78,0.82-12.27c0.58-0.15,1.26,0.15,2.03,0.9
		c2.58,2.51,3.97,7.53,4,9.53c0,0.22,0.11,0.39,0.3,0.49l0.04,0.02c1.06,0.53,2.04,0.55,2.86,0.03c1.2-0.76,1.97-2.64,1.91-4.67
		c-0.09-2.88-1.16-5.92-2.95-8.32c-3.69-4.96-7.67-4.87-9.72-4.37c-6.31,1.52-8.38,8.88-5.68,20.2c1.13,4.73,5.62,13,12.08,16.62
		c3.46,1.93,7.15,2.34,10.69,1.19c3.66-1.2,6.53-3.72,8.31-7.3c3.51-7.05,2.25-16.81-0.09-23.58c-2.28-6.59-6.73-13.12-11.93-17.45
		c-6.46-5.39-13.62-7.13-20.15-4.91c-4.22,1.44-7.68,4.76-10.02,9.61c-4.14,8.61-4.31,21.13-0.42,31.91
		c6.03,16.75,23.11,31.87,40.19,27.07c15.98-4.47,22.25-21.72,16.79-46.14C180.48,148,176.45,140.28,171.01,133.84z M158.02,122.71
		c-5.96-3.49-12.04-5.26-18.06-5.26c-2.92,0-5.81,0.42-8.6,1.26c-2.27,0.68-4.43,1.67-6.47,2.89c-0.21-7.43-0.92-12.49-1.44-15.29
		c1.56-1.23,2.58-3.11,2.58-5.24h-3.73h-3.46c-6.26,0-11.36-5.1-11.36-11.36c0-6.26,5.1-11.36,11.36-11.36
		c0.84,0,1.67,0.09,2.47,0.27c-0.13,3.44,2.93,6.23,6.42,5.74l0.12-0.02c-0.11-0.78-0.17-1.58-0.17-2.38
		c0-9.33,7.59-16.91,16.91-16.91c7.06,0,13.33,4.47,15.78,10.99c-0.85,2.05-0.45,4.55,1.43,6.2c2.16-2.47,5.28-3.88,8.55-3.88
		c6.63,0,11.95,5.7,11.31,12.46c-0.55,5.89-5.73,10.27-11.64,10.27h-0.45h-2.75H151.6c0,3.7,3,6.69,6.69,6.69h7.2
		c-0.59,3.64-1.26,9.91-1.21,19.42C162.28,125.54,160.21,124,158.02,122.71z"></path>
</g>
</svg>