<?xml version="1.0" encoding="UTF-8"?>
<svg id="Layer_2" data-name="Layer 2" xmlns="http://www.w3.org/2000/svg" xmlns:xlink="http://www.w3.org/1999/xlink" viewBox="0 0 125.0 123.78">
  <defs>
    <style>
      .cls-1 {
        fill: url(#linear-gradient);
      }

      .cls-2 {
        fill: #2b2523;
      }
    </style>
    <linearGradient id="linear-gradient" x1="0" y1="61.89" x2="116.85" y2="61.89" gradientUnits="userSpaceOnUse">
      <stop offset=".4" stop-color="#792182"/>
      <stop offset="1" stop-color="#e60f76"/>
    </linearGradient>
  </defs>
  <g id="Layer_1-2" data-name="Layer 1">
    <g>
     <path class="cls-1" d="m75.63,0H4.33C1.94,0,0,1.94,0,4.33v21.25c0,1.77.34,2.75,1.18,3.59,6.1,6.1,18.54,18.54,24.64,24.64.39.39.96.15.96-.35v-25.15c0-.53-.43-.96-.96-.96H6.33c-1.27,0-2.3-1.03-2.3-2.3V6.33c0-1.27,1.03-2.3,2.3-2.3h65.35c1.27,0,2.3,1.03,2.3,2.3v18.73c0,1.27-1.03,2.29-2.29,2.29h-19.48c-.53,0-.97.43-.97.97v72.94c0,1.27-1.03,2.29-2.29,2.29h-19.38c-.51,0-.85.63-.49.99,4.24,4.24,12.78,12.78,17.11,17.11,1.16,1.16,2.68,2.14,4.62,2.14h18.61c1.76,0,3.19-1.43,3.19-3.19v-43.45c0-.53.43-.97.97-.97h2.04c20.91,0,41.22-12.76,41.22-38.24C116.85,15.26,101.21,0,75.63,0Z"/>
    </g>
  </g>
</svg>